<?xml version="1.0" encoding="UTF-8" standalone="no"?>
<!DOCTYPE svg PUBLIC "-//W3C//DTD SVG 1.1//EN" "http://www.w3.org/Graphics/SVG/1.1/DTD/svg11.dtd">
<svg width="100%" height="100%" viewBox="0 0 105 71" version="1.1" xmlns="http://www.w3.org/2000/svg" xmlns:xlink="http://www.w3.org/1999/xlink" xml:space="preserve" xmlns:serif="http://www.serif.com/" style="fill-rule:evenodd;clip-rule:evenodd;stroke-linejoin:round;stroke-miterlimit:2;">
    <g transform="matrix(1,0,0,1,-183,-102)">
        <g id="Sakila-copy" serif:id="Sakila copy" transform="matrix(0.899453,0,0,0.899453,175.869,75.8008)">
            <path d="M91.253,87.111C87.98,87.025 85.479,87.321 83.342,88.193C82.735,88.44 81.767,88.447 81.667,89.185C82.001,89.525 82.053,90.029 82.319,90.446C82.828,91.245 83.691,92.317 84.459,92.878C85.3,93.494 86.164,94.15 87.065,94.683C88.666,95.629 90.455,96.168 91.997,97.115C92.906,97.672 93.809,98.378 94.696,99.008C95.133,99.318 95.429,99.804 95.999,99.999L95.999,99.909C95.698,99.539 95.622,99.032 95.347,98.645C94.944,98.255 94.54,97.866 94.137,97.475C92.954,95.957 91.453,94.619 89.856,93.51C88.583,92.625 85.735,91.43 85.203,89.993C85.172,89.965 85.141,89.936 85.11,89.905C86.013,89.806 87.07,89.491 87.902,89.275C89.302,88.911 90.552,89.004 91.997,88.644C92.648,88.463 93.3,88.284 93.952,88.103L93.952,87.74C93.221,87.016 92.7,86.055 91.904,85.399C89.82,83.681 87.545,81.965 85.203,80.533C83.905,79.739 82.299,79.222 80.923,78.549C80.46,78.323 79.646,78.206 79.34,77.829C78.617,76.934 78.223,75.805 77.666,74.763C76.497,72.587 75.35,70.206 74.315,67.916C73.609,66.352 73.148,64.811 72.268,63.41C68.043,56.682 63.494,52.62 56.448,48.628C54.949,47.781 53.144,47.445 51.237,47.007C50.213,46.945 49.189,46.888 48.165,46.826C47.541,46.575 46.89,45.834 46.304,45.474C43.97,44.046 37.983,40.939 36.254,45.023C35.163,47.601 37.885,50.118 38.859,51.422C39.543,52.34 40.418,53.367 40.907,54.396C41.228,55.075 41.283,55.754 41.558,56.47C42.235,58.235 42.824,60.155 43.698,61.786C44.141,62.612 44.628,63.482 45.187,64.221C45.53,64.673 46.118,64.873 46.211,65.572C45.635,66.352 45.603,67.56 45.281,68.548C43.826,72.988 44.374,78.506 46.49,81.794C47.14,82.802 48.669,84.967 50.771,84.138C52.61,83.411 52.199,81.163 52.725,79.179C52.844,78.73 52.771,78.401 53.005,78.099L53.005,78.187C53.563,79.27 54.121,80.352 54.68,81.432C55.92,83.366 58.12,85.389 59.984,86.751C60.951,87.457 61.712,88.679 62.962,89.094L62.962,89.002L62.869,89.002C62.626,88.64 62.248,88.487 61.939,88.193C61.21,87.502 60.4,86.642 59.798,85.849C58.102,83.619 56.604,81.179 55.238,78.64C54.586,77.428 54.02,76.089 53.47,74.854C53.258,74.379 53.26,73.661 52.818,73.412C52.216,74.317 51.33,75.047 50.864,76.118C50.119,77.825 50.024,79.905 49.747,82.064C49.584,82.121 49.657,82.082 49.561,82.154C48.265,81.852 47.81,80.56 47.328,79.451C46.11,76.646 45.883,72.132 46.956,68.908C47.233,68.072 48.486,65.441 47.979,64.671C47.737,63.9 46.938,63.457 46.49,62.867C45.937,62.142 45.384,61.184 45.001,60.344C44.004,58.159 43.538,55.704 42.489,53.497C41.987,52.439 41.138,51.371 40.442,50.433C39.67,49.392 38.806,48.624 38.208,47.367C37.995,46.92 37.706,46.205 38.022,45.743C38.122,45.435 38.264,45.305 38.58,45.204C39.12,44.801 40.623,45.34 41.186,45.565C42.678,46.165 43.923,46.735 45.187,47.548C45.795,47.937 46.408,48.69 47.142,48.898L47.979,48.898C49.289,49.19 50.757,48.99 51.981,49.35C54.144,49.986 56.083,50.978 57.844,52.052C63.208,55.334 67.593,60 70.593,65.572C71.076,66.467 71.284,67.325 71.709,68.276C72.567,70.194 73.648,72.167 74.502,74.043C75.353,75.916 76.183,77.805 77.386,79.362C78.019,80.179 80.464,80.619 81.574,81.072C82.353,81.391 83.629,81.724 84.366,82.154C85.775,82.975 87.139,83.957 88.461,84.858C89.121,85.309 91.151,86.296 91.253,87.111ZM49.655,52.774C48.972,52.762 48.49,52.846 47.979,52.955L47.979,53.044L48.072,53.044C48.398,53.692 48.973,54.11 49.375,54.667C49.685,55.297 49.996,55.928 50.306,56.558C50.337,56.529 50.368,56.499 50.399,56.47C50.975,56.077 51.239,55.447 51.237,54.488C51.005,54.252 50.971,53.955 50.771,53.676C50.504,53.303 49.99,53.089 49.655,52.774Z" style="fill:rgb(101,149,177);"/>
        </g>
    </g>
</svg>
